<svg xmlns="http://www.w3.org/2000/svg" viewBox="-20 -5 220 165">
  <!-- Heart-shaped pink/red glasses -->
  <defs>
    <linearGradient id="heartGrad" x1="0%" y1="0%" x2="100%" y2="100%">
      <stop offset="0%" style="stop-color:#FF69B4"/>
      <stop offset="100%" style="stop-color:#FF1493"/>
    </linearGradient>
  </defs>
  <g fill="url(#heartGrad)" stroke="#C71585" stroke-width="0.8">
    <!-- Left heart lens -->
    <path d="M 70 63 C 64 59, 58 63, 58 69 C 58 75, 70 80, 70 80 C 70 80, 82 75, 82 69 C 82 63, 76 59, 70 63 Z"/>
    <!-- Right heart lens -->
    <path d="M 110 63 C 104 59, 98 63, 98 69 C 98 75, 110 80, 110 80 C 110 80, 122 75, 122 69 C 122 63, 116 59, 110 63 Z"/>
    <!-- Bridge -->
    <path d="M 82 69 L 98 69"/>
  </g>
</svg>
