<svg xmlns="http://www.w3.org/2000/svg" viewBox="0 0 168 34" data-keyboard="true">
  <!-- Mythic holographic keyboard with translucent keys -->
  <defs>
    <linearGradient id="holoGrad" x1="0" y1="0" x2="1" y2="1">
      <stop offset="0%" stop-color="#ff44aa" stop-opacity="0.3"/>
      <stop offset="33%" stop-color="#44aaff" stop-opacity="0.3"/>
      <stop offset="66%" stop-color="#44ffaa" stop-opacity="0.3"/>
      <stop offset="100%" stop-color="#ff44aa" stop-opacity="0.3"/>
    </linearGradient>
    <linearGradient id="holoEdge" x1="0" y1="0" x2="1" y2="0">
      <stop offset="0%" stop-color="#ff69b4"/>
      <stop offset="50%" stop-color="#00bfff"/>
      <stop offset="100%" stop-color="#ff69b4"/>
    </linearGradient>
  </defs>
  <rect x="0" y="0" width="168" height="34" rx="3" fill="url(#holoGrad)" stroke="url(#holoEdge)" stroke-width="1"/>
  <!-- Row 1 -->
  <g fill="none" stroke="#88ccff" stroke-width="0.4" opacity="0.7">
    <rect x="6" y="4" width="10" height="6.5" rx="1"/><rect x="18" y="4" width="10" height="6.5" rx="1"/>
    <rect x="30" y="4" width="10" height="6.5" rx="1"/><rect x="42" y="4" width="10" height="6.5" rx="1"/>
    <rect x="54" y="4" width="10" height="6.5" rx="1"/><rect x="66" y="4" width="10" height="6.5" rx="1"/>
    <rect x="78" y="4" width="10" height="6.5" rx="1"/><rect x="90" y="4" width="10" height="6.5" rx="1"/>
    <rect x="102" y="4" width="10" height="6.5" rx="1"/><rect x="114" y="4" width="10" height="6.5" rx="1"/>
    <rect x="126" y="4" width="10" height="6.5" rx="1"/><rect x="138" y="4" width="22" height="6.5" rx="1"/>
  </g>
  <!-- Row 2 -->
  <g fill="none" stroke="#cc88ff" stroke-width="0.4" opacity="0.7">
    <rect x="6" y="12.5" width="14" height="6.5" rx="1"/>
    <rect x="22" y="12.5" width="10" height="6.5" rx="1"/>
    <rect x="34" y="12.5" width="10" height="6.5" rx="1"/><rect x="46" y="12.5" width="10" height="6.5" rx="1"/>
    <rect x="58" y="12.5" width="10" height="6.5" rx="1"/><rect x="70" y="12.5" width="10" height="6.5" rx="1"/>
    <rect x="82" y="12.5" width="10" height="6.5" rx="1"/><rect x="94" y="12.5" width="10" height="6.5" rx="1"/>
    <rect x="106" y="12.5" width="10" height="6.5" rx="1"/><rect x="118" y="12.5" width="10" height="6.5" rx="1"/>
    <rect x="130" y="12.5" width="30" height="6.5" rx="1"/>
  </g>
  <!-- Row 3 -->
  <g fill="none" stroke="#88ffcc" stroke-width="0.4" opacity="0.7">
    <rect x="6" y="21" width="18" height="6.5" rx="1"/>
    <rect x="26" y="21" width="10" height="6.5" rx="1"/>
    <rect x="38" y="21" width="10" height="6.5" rx="1"/><rect x="50" y="21" width="10" height="6.5" rx="1"/>
    <rect x="62" y="21" width="50" height="6.5" rx="1"/>
    <rect x="114" y="21" width="10" height="6.5" rx="1"/><rect x="126" y="21" width="10" height="6.5" rx="1"/>
    <rect x="138" y="21" width="22" height="6.5" rx="1"/>
  </g>
</svg>
