<svg xmlns="http://www.w3.org/2000/svg" viewBox="0 0 168 34" data-keyboard="true">
  <!-- Mechanical keyboard: chunky keycaps with visible stems -->
  <rect x="0" y="0" width="168" height="34" rx="4" fill="#1a1a2e" stroke="#16213e" stroke-width="0.8"/>
  <rect x="2" y="1.5" width="164" height="30" rx="3" fill="#1f2937"/>
  <g fill="#374151" stroke="#4b5563" stroke-width="0.4">
    <rect x="6" y="4" width="10" height="7" rx="1.5"/><rect x="18" y="4" width="10" height="7" rx="1.5"/>
    <rect x="30" y="4" width="10" height="7" rx="1.5"/><rect x="42" y="4" width="10" height="7" rx="1.5"/>
    <rect x="54" y="4" width="10" height="7" rx="1.5"/><rect x="66" y="4" width="10" height="7" rx="1.5"/>
    <rect x="78" y="4" width="10" height="7" rx="1.5"/><rect x="90" y="4" width="10" height="7" rx="1.5"/>
    <rect x="102" y="4" width="10" height="7" rx="1.5"/><rect x="114" y="4" width="10" height="7" rx="1.5"/>
    <rect x="126" y="4" width="10" height="7" rx="1.5"/><rect x="138" y="4" width="22" height="7" rx="1.5"/>
  </g>
  <g fill="#374151" stroke="#4b5563" stroke-width="0.4">
    <rect x="6" y="13" width="14" height="7" rx="1.5"/><rect x="22" y="13" width="10" height="7" rx="1.5"/>
    <rect x="34" y="13" width="10" height="7" rx="1.5"/><rect x="46" y="13" width="10" height="7" rx="1.5"/>
    <rect x="58" y="13" width="10" height="7" rx="1.5"/><rect x="70" y="13" width="10" height="7" rx="1.5"/>
    <rect x="82" y="13" width="10" height="7" rx="1.5"/><rect x="94" y="13" width="10" height="7" rx="1.5"/>
    <rect x="106" y="13" width="10" height="7" rx="1.5"/><rect x="118" y="13" width="10" height="7" rx="1.5"/>
    <rect x="130" y="13" width="30" height="7" rx="1.5"/>
  </g>
  <g fill="#374151" stroke="#4b5563" stroke-width="0.4">
    <rect x="6" y="22" width="18" height="7" rx="1.5"/><rect x="26" y="22" width="10" height="7" rx="1.5"/>
    <rect x="38" y="22" width="10" height="7" rx="1.5"/>
    <rect x="50" y="22" width="56" height="7" rx="1.5"/>
    <rect x="108" y="22" width="10" height="7" rx="1.5"/><rect x="120" y="22" width="10" height="7" rx="1.5"/>
    <rect x="132" y="22" width="28" height="7" rx="1.5"/>
  </g>
  <!-- Keycap highlights -->
  <g fill="rgba(255,255,255,0.08)">
    <rect x="42" y="4" width="10" height="3" rx="1"/><rect x="70" y="13" width="10" height="3" rx="1"/>
    <rect x="50" y="22" width="56" height="3" rx="1"/>
  </g>
</svg>
